<svg xmlns="http://www.w3.org/2000/svg" width="800" height="420" viewBox="0 0 800 420" role="img" aria-label="Star history of pnnbao97/VieNeu-TTS">
<text x="78" y="30" font-family="-apple-system,'Segoe UI',Helvetica,Arial,sans-serif" font-size="18" font-weight="600" fill="#24292f">Star history of pnnbao97/VieNeu-TTS</text>
<text x="78" y="50" font-family="-apple-system,'Segoe UI',Helvetica,Arial,sans-serif" font-size="12" fill="#57606a">2,476 stars · updated Sep 4, 2026</text>
<line x1="78" y1="364.0" x2="764" y2="364.0" stroke="#d0d7de" stroke-width="1" stroke-dasharray="3,3"/>
<text x="70" y="368.0" font-family="-apple-system,'Segoe UI',Helvetica,Arial,sans-serif" font-size="12" text-anchor="end" fill="#57606a">0</text>
<line x1="78" y1="264.0" x2="764" y2="264.0" stroke="#d0d7de" stroke-width="1" stroke-dasharray="3,3"/>
<text x="70" y="268.0" font-family="-apple-system,'Segoe UI',Helvetica,Arial,sans-serif" font-size="12" text-anchor="end" fill="#57606a">1,000</text>
<line x1="78" y1="164.0" x2="764" y2="164.0" stroke="#d0d7de" stroke-width="1" stroke-dasharray="3,3"/>
<text x="70" y="168.0" font-family="-apple-system,'Segoe UI',Helvetica,Arial,sans-serif" font-size="12" text-anchor="end" fill="#57606a">2,000</text>
<line x1="78" y1="64.0" x2="764" y2="64.0" stroke="#d0d7de" stroke-width="1" stroke-dasharray="3,3"/>
<text x="70" y="68.0" font-family="-apple-system,'Segoe UI',Helvetica,Arial,sans-serif" font-size="12" text-anchor="end" fill="#57606a">3,000</text>
<text x="78.0" y="388" font-family="-apple-system,'Segoe UI',Helvetica,Arial,sans-serif" font-size="12" text-anchor="middle" fill="#57606a">Oct 2025</text>
<text x="250.6" y="388" font-family="-apple-system,'Segoe UI',Helvetica,Arial,sans-serif" font-size="12" text-anchor="middle" fill="#57606a">Jan 2026</text>
<text x="421.0" y="388" font-family="-apple-system,'Segoe UI',Helvetica,Arial,sans-serif" font-size="12" text-anchor="middle" fill="#57606a">Apr 2026</text>
<text x="591.4" y="388" font-family="-apple-system,'Segoe UI',Helvetica,Arial,sans-serif" font-size="12" text-anchor="middle" fill="#57606a">Jun 2026</text>
<text x="764.0" y="388" font-family="-apple-system,'Segoe UI',Helvetica,Arial,sans-serif" font-size="12" text-anchor="middle" fill="#57606a">Sep 2026</text>
<path d="M78.0,361.0 L80.2,359.8 L82.4,359.5 L84.6,359.4 L86.9,359.2 L89.1,359.0 L91.3,358.9 L93.5,358.7 L95.7,358.5 L100.1,358.4 L104.6,358.2 L106.8,358.0 L109.0,357.8 L111.2,357.7 L113.4,357.4 L115.6,357.2 L117.8,356.9 L120.0,356.8 L122.3,356.0 L124.5,355.4 L126.7,354.8 L128.9,354.4 L131.1,354.0 L133.3,353.4 L135.5,352.4 L137.7,351.7 L140.0,351.5 L142.2,350.9 L144.4,350.8 L146.6,350.6 L148.8,350.3 L151.0,350.2 L153.2,349.9 L155.5,349.8 L157.7,349.6 L164.3,349.3 L166.5,349.1 L168.7,348.9 L170.9,348.1 L173.2,339.9 L175.4,336.1 L177.6,334.9 L179.8,333.9 L182.0,333.1 L184.2,332.3 L186.4,331.7 L188.6,331.1 L190.9,330.2 L193.1,329.9 L195.3,329.7 L197.5,329.2 L199.7,327.8 L201.9,327.2 L204.1,326.7 L206.3,326.4 L208.6,326.0 L210.8,325.4 L213.0,325.2 L215.2,325.0 L217.4,324.7 L219.6,324.4 L221.8,324.3 L224.1,324.2 L228.5,324.0 L232.9,323.9 L235.1,323.6 L237.3,317.4 L239.5,315.6 L241.8,312.8 L244.0,311.3 L246.2,310.3 L248.4,309.6 L250.6,308.9 L252.8,308.6 L255.0,308.5 L257.2,307.9 L259.5,307.6 L261.7,307.2 L263.9,306.6 L266.1,305.8 L268.3,304.9 L270.5,304.4 L272.7,302.7 L274.9,300.1 L277.2,297.6 L279.4,296.2 L281.6,295.6 L283.8,294.6 L286.0,293.9 L288.2,293.6 L290.4,293.1 L292.7,292.6 L294.9,292.2 L297.1,291.7 L299.3,291.6 L301.5,291.2 L303.7,291.0 L305.9,290.6 L308.1,290.2 L310.4,290.0 L312.6,289.9 L314.8,289.7 L317.0,289.6 L319.2,289.3 L321.4,288.6 L323.6,286.7 L325.8,285.9 L328.1,285.7 L330.3,285.4 L332.5,285.0 L334.7,284.9 L336.9,284.4 L339.1,283.3 L343.5,282.8 L348.0,282.5 L350.2,282.3 L352.4,281.9 L354.6,281.7 L356.8,281.5 L359.0,281.3 L361.3,281.0 L363.5,280.5 L365.7,280.1 L367.9,279.6 L370.1,279.1 L372.3,278.9 L374.5,277.4 L376.7,276.7 L379.0,276.0 L381.2,275.8 L383.4,275.3 L385.6,275.0 L387.8,274.6 L390.0,273.8 L392.2,273.6 L394.4,273.0 L396.7,272.4 L398.9,271.6 L401.1,271.0 L403.3,270.2 L405.5,269.8 L407.7,269.3 L409.9,268.7 L412.1,268.4 L414.4,267.6 L416.6,265.7 L418.8,264.2 L421.0,259.4 L423.2,247.9 L425.4,246.5 L427.6,245.5 L429.9,244.4 L432.1,244.0 L434.3,243.6 L436.5,242.6 L438.7,242.3 L440.9,241.6 L443.1,241.3 L445.3,240.7 L447.6,240.2 L449.8,239.6 L452.0,239.2 L454.2,238.6 L456.4,238.2 L458.6,237.6 L460.8,237.1 L463.0,236.9 L465.3,236.4 L467.5,235.7 L469.7,235.4 L471.9,235.1 L474.1,234.7 L478.5,234.2 L480.7,234.0 L483.0,233.7 L485.2,233.5 L487.4,233.3 L489.6,233.0 L491.8,232.3 L494.0,231.8 L496.2,224.1 L498.5,220.8 L500.7,219.5 L502.9,218.1 L505.1,216.8 L507.3,215.6 L509.5,214.6 L511.7,213.3 L513.9,212.8 L516.2,212.0 L518.4,211.6 L520.6,210.8 L522.8,209.9 L525.0,209.4 L527.2,208.7 L529.4,208.3 L531.6,207.5 L533.9,207.2 L536.1,206.8 L538.3,206.5 L540.5,205.6 L542.7,204.8 L544.9,204.2 L547.1,203.5 L549.3,203.2 L551.6,202.7 L553.8,202.5 L556.0,202.0 L558.2,201.6 L560.4,201.2 L562.6,200.7 L564.8,199.6 L567.1,198.7 L569.3,197.1 L571.5,195.8 L573.7,194.6 L575.9,193.2 L578.1,192.1 L580.3,191.2 L582.5,190.6 L584.8,190.3 L587.0,189.6 L589.2,184.3 L591.4,177.7 L593.6,175.4 L595.8,174.5 L598.0,173.7 L600.2,172.4 L602.5,171.6 L604.7,170.2 L606.9,169.5 L609.1,168.9 L611.3,168.5 L613.5,168.3 L615.7,167.9 L617.9,167.0 L620.2,165.9 L622.4,164.8 L624.6,163.6 L626.8,162.2 L629.0,161.1 L631.2,159.9 L633.4,159.1 L635.7,158.4 L637.9,157.1 L640.1,155.4 L642.3,154.0 L644.5,151.9 L646.7,150.2 L648.9,149.3 L651.1,147.6 L653.4,146.7 L655.6,145.8 L657.8,145.2 L660.0,144.8 L662.2,144.3 L664.4,143.3 L666.6,142.7 L668.8,141.9 L671.1,141.2 L673.3,140.7 L675.5,140.3 L677.7,140.0 L679.9,139.6 L682.1,138.6 L684.3,137.9 L686.5,137.3 L688.8,136.7 L691.0,136.4 L693.2,136.0 L695.4,135.2 L697.6,134.8 L699.8,134.3 L702.0,134.1 L704.3,133.7 L706.5,133.2 L708.7,132.7 L710.9,132.2 L713.1,131.8 L715.3,131.2 L717.5,130.9 L719.7,130.5 L722.0,130.1 L724.2,129.9 L726.4,129.4 L728.6,128.7 L730.8,128.1 L733.0,127.0 L735.2,126.4 L737.4,126.2 L739.7,126.0 L741.9,123.7 L744.1,122.1 L746.3,120.7 L748.5,119.6 L750.7,119.3 L752.9,118.7 L755.1,118.4 L757.4,118.1 L759.6,117.6 L761.8,117.0 L764.0,116.4 L764.0,364.0 L78.0,364.0 Z" fill="#e0524e" fill-opacity="0.10"/>
<path d="M78.0,361.0 L80.2,359.8 L82.4,359.5 L84.6,359.4 L86.9,359.2 L89.1,359.0 L91.3,358.9 L93.5,358.7 L95.7,358.5 L100.1,358.4 L104.6,358.2 L106.8,358.0 L109.0,357.8 L111.2,357.7 L113.4,357.4 L115.6,357.2 L117.8,356.9 L120.0,356.8 L122.3,356.0 L124.5,355.4 L126.7,354.8 L128.9,354.4 L131.1,354.0 L133.3,353.4 L135.5,352.4 L137.7,351.7 L140.0,351.5 L142.2,350.9 L144.4,350.8 L146.6,350.6 L148.8,350.3 L151.0,350.2 L153.2,349.9 L155.5,349.8 L157.7,349.6 L164.3,349.3 L166.5,349.1 L168.7,348.9 L170.9,348.1 L173.2,339.9 L175.4,336.1 L177.6,334.9 L179.8,333.9 L182.0,333.1 L184.2,332.3 L186.4,331.7 L188.6,331.1 L190.9,330.2 L193.1,329.9 L195.3,329.7 L197.5,329.2 L199.7,327.8 L201.9,327.2 L204.1,326.7 L206.3,326.4 L208.6,326.0 L210.8,325.4 L213.0,325.2 L215.2,325.0 L217.4,324.7 L219.6,324.4 L221.8,324.3 L224.1,324.2 L228.5,324.0 L232.9,323.9 L235.1,323.6 L237.3,317.4 L239.5,315.6 L241.8,312.8 L244.0,311.3 L246.2,310.3 L248.4,309.6 L250.6,308.9 L252.8,308.6 L255.0,308.5 L257.2,307.9 L259.5,307.6 L261.7,307.2 L263.9,306.6 L266.1,305.8 L268.3,304.9 L270.5,304.4 L272.7,302.7 L274.9,300.1 L277.2,297.6 L279.4,296.2 L281.6,295.6 L283.8,294.6 L286.0,293.9 L288.2,293.6 L290.4,293.1 L292.7,292.6 L294.9,292.2 L297.1,291.7 L299.3,291.6 L301.5,291.2 L303.7,291.0 L305.9,290.6 L308.1,290.2 L310.4,290.0 L312.6,289.9 L314.8,289.7 L317.0,289.6 L319.2,289.3 L321.4,288.6 L323.6,286.7 L325.8,285.9 L328.1,285.7 L330.3,285.4 L332.5,285.0 L334.7,284.9 L336.9,284.4 L339.1,283.3 L343.5,282.8 L348.0,282.5 L350.2,282.3 L352.4,281.9 L354.6,281.7 L356.8,281.5 L359.0,281.3 L361.3,281.0 L363.5,280.5 L365.7,280.1 L367.9,279.6 L370.1,279.1 L372.3,278.9 L374.5,277.4 L376.7,276.7 L379.0,276.0 L381.2,275.8 L383.4,275.3 L385.6,275.0 L387.8,274.6 L390.0,273.8 L392.2,273.6 L394.4,273.0 L396.7,272.4 L398.9,271.6 L401.1,271.0 L403.3,270.2 L405.5,269.8 L407.7,269.3 L409.9,268.7 L412.1,268.4 L414.4,267.6 L416.6,265.7 L418.8,264.2 L421.0,259.4 L423.2,247.9 L425.4,246.5 L427.6,245.5 L429.9,244.4 L432.1,244.0 L434.3,243.6 L436.5,242.6 L438.7,242.3 L440.9,241.6 L443.1,241.3 L445.3,240.7 L447.6,240.2 L449.8,239.6 L452.0,239.2 L454.2,238.6 L456.4,238.2 L458.6,237.6 L460.8,237.1 L463.0,236.9 L465.3,236.4 L467.5,235.7 L469.7,235.4 L471.9,235.1 L474.1,234.7 L478.5,234.2 L480.7,234.0 L483.0,233.7 L485.2,233.5 L487.4,233.3 L489.6,233.0 L491.8,232.3 L494.0,231.8 L496.2,224.1 L498.5,220.8 L500.7,219.5 L502.9,218.1 L505.1,216.8 L507.3,215.6 L509.5,214.6 L511.7,213.3 L513.9,212.8 L516.2,212.0 L518.4,211.6 L520.6,210.8 L522.8,209.9 L525.0,209.4 L527.2,208.7 L529.4,208.3 L531.6,207.5 L533.9,207.2 L536.1,206.8 L538.3,206.5 L540.5,205.6 L542.7,204.8 L544.9,204.2 L547.1,203.5 L549.3,203.2 L551.6,202.7 L553.8,202.5 L556.0,202.0 L558.2,201.6 L560.4,201.2 L562.6,200.7 L564.8,199.6 L567.1,198.7 L569.3,197.1 L571.5,195.8 L573.7,194.6 L575.9,193.2 L578.1,192.1 L580.3,191.2 L582.5,190.6 L584.8,190.3 L587.0,189.6 L589.2,184.3 L591.4,177.7 L593.6,175.4 L595.8,174.5 L598.0,173.7 L600.2,172.4 L602.5,171.6 L604.7,170.2 L606.9,169.5 L609.1,168.9 L611.3,168.5 L613.5,168.3 L615.7,167.9 L617.9,167.0 L620.2,165.9 L622.4,164.8 L624.6,163.6 L626.8,162.2 L629.0,161.1 L631.2,159.9 L633.4,159.1 L635.7,158.4 L637.9,157.1 L640.1,155.4 L642.3,154.0 L644.5,151.9 L646.7,150.2 L648.9,149.3 L651.1,147.6 L653.4,146.7 L655.6,145.8 L657.8,145.2 L660.0,144.8 L662.2,144.3 L664.4,143.3 L666.6,142.7 L668.8,141.9 L671.1,141.2 L673.3,140.7 L675.5,140.3 L677.7,140.0 L679.9,139.6 L682.1,138.6 L684.3,137.9 L686.5,137.3 L688.8,136.7 L691.0,136.4 L693.2,136.0 L695.4,135.2 L697.6,134.8 L699.8,134.3 L702.0,134.1 L704.3,133.7 L706.5,133.2 L708.7,132.7 L710.9,132.2 L713.1,131.8 L715.3,131.2 L717.5,130.9 L719.7,130.5 L722.0,130.1 L724.2,129.9 L726.4,129.4 L728.6,128.7 L730.8,128.1 L733.0,127.0 L735.2,126.4 L737.4,126.2 L739.7,126.0 L741.9,123.7 L744.1,122.1 L746.3,120.7 L748.5,119.6 L750.7,119.3 L752.9,118.7 L755.1,118.4 L757.4,118.1 L759.6,117.6 L761.8,117.0 L764.0,116.4" fill="none" stroke="#e0524e" stroke-width="2.5" stroke-linejoin="round" stroke-linecap="round"/>
<circle cx="764.0" cy="116.4" r="4" fill="#e0524e"/>
<text x="756.0" y="108.4" font-family="-apple-system,'Segoe UI',Helvetica,Arial,sans-serif" font-size="13" font-weight="600" text-anchor="end" fill="#e0524e">2,476</text>
</svg>
