<svg xmlns="http://www.w3.org/2000/svg" width="800" height="420" viewBox="0 0 800 420" role="img" aria-label="Star history of pnnbao97/VieNeu-TTS">
<text x="78" y="30" font-family="-apple-system,'Segoe UI',Helvetica,Arial,sans-serif" font-size="18" font-weight="600" fill="#24292f">Star history of pnnbao97/VieNeu-TTS</text>
<text x="78" y="50" font-family="-apple-system,'Segoe UI',Helvetica,Arial,sans-serif" font-size="12" fill="#57606a">2,444 stars · updated Aug 28, 2026</text>
<line x1="78" y1="364.0" x2="764" y2="364.0" stroke="#d0d7de" stroke-width="1" stroke-dasharray="3,3"/>
<text x="70" y="368.0" font-family="-apple-system,'Segoe UI',Helvetica,Arial,sans-serif" font-size="12" text-anchor="end" fill="#57606a">0</text>
<line x1="78" y1="264.0" x2="764" y2="264.0" stroke="#d0d7de" stroke-width="1" stroke-dasharray="3,3"/>
<text x="70" y="268.0" font-family="-apple-system,'Segoe UI',Helvetica,Arial,sans-serif" font-size="12" text-anchor="end" fill="#57606a">1,000</text>
<line x1="78" y1="164.0" x2="764" y2="164.0" stroke="#d0d7de" stroke-width="1" stroke-dasharray="3,3"/>
<text x="70" y="168.0" font-family="-apple-system,'Segoe UI',Helvetica,Arial,sans-serif" font-size="12" text-anchor="end" fill="#57606a">2,000</text>
<line x1="78" y1="64.0" x2="764" y2="64.0" stroke="#d0d7de" stroke-width="1" stroke-dasharray="3,3"/>
<text x="70" y="68.0" font-family="-apple-system,'Segoe UI',Helvetica,Arial,sans-serif" font-size="12" text-anchor="end" fill="#57606a">3,000</text>
<text x="78.0" y="388" font-family="-apple-system,'Segoe UI',Helvetica,Arial,sans-serif" font-size="12" text-anchor="middle" fill="#57606a">Oct 2025</text>
<text x="250.1" y="388" font-family="-apple-system,'Segoe UI',Helvetica,Arial,sans-serif" font-size="12" text-anchor="middle" fill="#57606a">Jan 2026</text>
<text x="422.1" y="388" font-family="-apple-system,'Segoe UI',Helvetica,Arial,sans-serif" font-size="12" text-anchor="middle" fill="#57606a">Mar 2026</text>
<text x="591.9" y="388" font-family="-apple-system,'Segoe UI',Helvetica,Arial,sans-serif" font-size="12" text-anchor="middle" fill="#57606a">Jun 2026</text>
<text x="764.0" y="388" font-family="-apple-system,'Segoe UI',Helvetica,Arial,sans-serif" font-size="12" text-anchor="middle" fill="#57606a">Aug 2026</text>
<path d="M78.0,361.0 L80.3,359.8 L82.5,359.5 L84.8,359.4 L87.1,359.2 L89.3,359.0 L91.6,358.9 L93.8,358.7 L96.1,358.5 L100.6,358.4 L105.2,358.2 L107.4,358.0 L109.7,357.8 L112.0,357.7 L114.2,357.4 L116.5,357.2 L118.8,356.9 L121.0,356.8 L123.3,356.0 L125.5,355.4 L127.8,354.8 L130.1,354.4 L132.3,354.0 L134.6,353.4 L136.9,352.4 L139.1,351.7 L141.4,351.5 L143.7,350.9 L145.9,350.8 L148.2,350.6 L150.4,350.3 L152.7,350.2 L155.0,349.9 L157.2,349.8 L159.5,349.6 L166.3,349.3 L168.6,349.1 L170.8,348.9 L173.1,348.1 L175.4,339.9 L177.6,336.1 L179.9,334.9 L182.1,333.9 L184.4,333.1 L186.7,332.3 L188.9,331.7 L191.2,331.1 L193.5,330.2 L195.7,329.9 L198.0,329.7 L200.3,329.2 L202.5,327.8 L204.8,327.2 L207.0,326.7 L209.3,326.4 L211.6,326.0 L213.8,325.4 L216.1,325.2 L218.4,325.0 L220.6,324.7 L222.9,324.4 L225.2,324.3 L227.4,324.2 L232.0,324.0 L236.5,323.9 L238.7,323.6 L241.0,317.4 L243.3,315.6 L245.5,312.8 L247.8,311.3 L250.1,310.3 L252.3,309.6 L254.6,308.9 L256.9,308.6 L259.1,308.5 L261.4,307.9 L263.7,307.6 L265.9,307.2 L268.2,306.6 L270.4,305.8 L272.7,304.9 L275.0,304.4 L277.2,302.7 L279.5,300.1 L281.8,297.6 L284.0,296.2 L286.3,295.6 L288.6,294.6 L290.8,293.9 L293.1,293.6 L295.3,293.1 L297.6,292.6 L299.9,292.2 L302.1,291.7 L304.4,291.6 L306.7,291.2 L308.9,291.0 L311.2,290.6 L313.5,290.2 L315.7,290.0 L318.0,289.9 L320.3,289.7 L322.5,289.6 L324.8,289.3 L327.0,288.6 L329.3,286.7 L331.6,285.9 L333.8,285.7 L336.1,285.4 L338.4,285.0 L340.6,284.9 L342.9,284.4 L345.2,283.3 L349.7,282.8 L354.2,282.5 L356.5,282.3 L358.7,281.9 L361.0,281.7 L363.3,281.5 L365.5,281.3 L367.8,281.0 L370.1,280.5 L372.3,280.1 L374.6,279.6 L376.9,279.1 L379.1,278.9 L381.4,277.4 L383.6,276.7 L385.9,276.0 L388.2,275.8 L390.4,275.3 L392.7,275.0 L395.0,274.6 L397.2,273.8 L399.5,273.6 L401.8,273.0 L404.0,272.4 L406.3,271.6 L408.5,271.0 L410.8,270.2 L413.1,269.8 L415.3,269.3 L417.6,268.7 L419.9,268.4 L422.1,267.6 L424.4,265.7 L426.7,264.2 L428.9,259.4 L431.2,247.9 L433.5,246.5 L435.7,245.5 L438.0,244.4 L440.2,244.0 L442.5,243.6 L444.8,242.6 L447.0,242.3 L449.3,241.6 L451.6,241.3 L453.8,240.7 L456.1,240.2 L458.4,239.6 L460.6,239.2 L462.9,238.6 L465.1,238.2 L467.4,237.6 L469.7,237.1 L471.9,236.9 L474.2,236.4 L476.5,235.7 L478.7,235.4 L481.0,235.1 L483.3,234.7 L487.8,234.2 L490.1,234.0 L492.3,233.7 L494.6,233.5 L496.8,233.3 L499.1,233.0 L501.4,232.3 L503.6,231.8 L505.9,224.1 L508.2,220.8 L510.4,219.5 L512.7,218.1 L515.0,216.8 L517.2,215.6 L519.5,214.6 L521.7,213.3 L524.0,212.8 L526.3,212.0 L528.5,211.6 L530.8,210.8 L533.1,209.9 L535.3,209.4 L537.6,208.7 L539.9,208.3 L542.1,207.5 L544.4,207.2 L546.7,206.8 L548.9,206.5 L551.2,205.6 L553.4,204.8 L555.7,204.2 L558.0,203.5 L560.2,203.2 L562.5,202.7 L564.8,202.5 L567.0,202.0 L569.3,201.6 L571.6,201.2 L573.8,200.7 L576.1,199.6 L578.3,198.7 L580.6,197.1 L582.9,195.8 L585.1,194.6 L587.4,193.2 L589.7,192.1 L591.9,191.2 L594.2,190.6 L596.5,190.3 L598.7,189.6 L601.0,184.3 L603.3,177.7 L605.5,175.4 L607.8,174.5 L610.0,173.7 L612.3,172.4 L614.6,171.6 L616.8,170.2 L619.1,169.5 L621.4,168.9 L623.6,168.5 L625.9,168.3 L628.2,167.9 L630.4,167.0 L632.7,165.9 L635.0,164.8 L637.2,163.6 L639.5,162.2 L641.7,161.1 L644.0,159.9 L646.3,159.1 L648.5,158.4 L650.8,157.1 L653.1,155.4 L655.3,154.0 L657.6,151.9 L659.9,150.2 L662.1,149.3 L664.4,147.6 L666.6,146.7 L668.9,145.8 L671.2,145.2 L673.4,144.8 L675.7,144.3 L678.0,143.3 L680.2,142.7 L682.5,141.9 L684.8,141.2 L687.0,140.7 L689.3,140.3 L691.6,140.0 L693.8,139.6 L696.1,138.6 L698.3,137.9 L700.6,137.3 L702.9,136.7 L705.1,136.4 L707.4,136.0 L709.7,135.2 L711.9,134.8 L714.2,134.3 L716.5,134.1 L718.7,133.7 L721.0,133.2 L723.2,132.7 L725.5,132.2 L727.8,131.8 L730.0,131.2 L732.3,130.9 L734.6,130.5 L736.8,130.1 L739.1,129.9 L741.4,129.4 L743.6,128.7 L745.9,128.1 L748.2,127.0 L750.4,126.4 L752.7,126.2 L754.9,126.0 L757.2,123.7 L759.5,122.1 L761.7,120.7 L764.0,119.6 L764.0,364.0 L78.0,364.0 Z" fill="#e0524e" fill-opacity="0.10"/>
<path d="M78.0,361.0 L80.3,359.8 L82.5,359.5 L84.8,359.4 L87.1,359.2 L89.3,359.0 L91.6,358.9 L93.8,358.7 L96.1,358.5 L100.6,358.4 L105.2,358.2 L107.4,358.0 L109.7,357.8 L112.0,357.7 L114.2,357.4 L116.5,357.2 L118.8,356.9 L121.0,356.8 L123.3,356.0 L125.5,355.4 L127.8,354.8 L130.1,354.4 L132.3,354.0 L134.6,353.4 L136.9,352.4 L139.1,351.7 L141.4,351.5 L143.7,350.9 L145.9,350.8 L148.2,350.6 L150.4,350.3 L152.7,350.2 L155.0,349.9 L157.2,349.8 L159.5,349.6 L166.3,349.3 L168.6,349.1 L170.8,348.9 L173.1,348.1 L175.4,339.9 L177.6,336.1 L179.9,334.9 L182.1,333.9 L184.4,333.1 L186.7,332.3 L188.9,331.7 L191.2,331.1 L193.5,330.2 L195.7,329.9 L198.0,329.7 L200.3,329.2 L202.5,327.8 L204.8,327.2 L207.0,326.7 L209.3,326.4 L211.6,326.0 L213.8,325.4 L216.1,325.2 L218.4,325.0 L220.6,324.7 L222.9,324.4 L225.2,324.3 L227.4,324.2 L232.0,324.0 L236.5,323.9 L238.7,323.6 L241.0,317.4 L243.3,315.6 L245.5,312.8 L247.8,311.3 L250.1,310.3 L252.3,309.6 L254.6,308.9 L256.9,308.6 L259.1,308.5 L261.4,307.9 L263.7,307.6 L265.9,307.2 L268.2,306.6 L270.4,305.8 L272.7,304.9 L275.0,304.4 L277.2,302.7 L279.5,300.1 L281.8,297.6 L284.0,296.2 L286.3,295.6 L288.6,294.6 L290.8,293.9 L293.1,293.6 L295.3,293.1 L297.6,292.6 L299.9,292.2 L302.1,291.7 L304.4,291.6 L306.7,291.2 L308.9,291.0 L311.2,290.6 L313.5,290.2 L315.7,290.0 L318.0,289.9 L320.3,289.7 L322.5,289.6 L324.8,289.3 L327.0,288.6 L329.3,286.7 L331.6,285.9 L333.8,285.7 L336.1,285.4 L338.4,285.0 L340.6,284.9 L342.9,284.4 L345.2,283.3 L349.7,282.8 L354.2,282.5 L356.5,282.3 L358.7,281.9 L361.0,281.7 L363.3,281.5 L365.5,281.3 L367.8,281.0 L370.1,280.5 L372.3,280.1 L374.6,279.6 L376.9,279.1 L379.1,278.9 L381.4,277.4 L383.6,276.7 L385.9,276.0 L388.2,275.8 L390.4,275.3 L392.7,275.0 L395.0,274.6 L397.2,273.8 L399.5,273.6 L401.8,273.0 L404.0,272.4 L406.3,271.6 L408.5,271.0 L410.8,270.2 L413.1,269.8 L415.3,269.3 L417.6,268.7 L419.9,268.4 L422.1,267.6 L424.4,265.7 L426.7,264.2 L428.9,259.4 L431.2,247.9 L433.5,246.5 L435.7,245.5 L438.0,244.4 L440.2,244.0 L442.5,243.6 L444.8,242.6 L447.0,242.3 L449.3,241.6 L451.6,241.3 L453.8,240.7 L456.1,240.2 L458.4,239.6 L460.6,239.2 L462.9,238.6 L465.1,238.2 L467.4,237.6 L469.7,237.1 L471.9,236.9 L474.2,236.4 L476.5,235.7 L478.7,235.4 L481.0,235.1 L483.3,234.7 L487.8,234.2 L490.1,234.0 L492.3,233.7 L494.6,233.5 L496.8,233.3 L499.1,233.0 L501.4,232.3 L503.6,231.8 L505.9,224.1 L508.2,220.8 L510.4,219.5 L512.7,218.1 L515.0,216.8 L517.2,215.6 L519.5,214.6 L521.7,213.3 L524.0,212.8 L526.3,212.0 L528.5,211.6 L530.8,210.8 L533.1,209.9 L535.3,209.4 L537.6,208.7 L539.9,208.3 L542.1,207.5 L544.4,207.2 L546.7,206.8 L548.9,206.5 L551.2,205.6 L553.4,204.8 L555.7,204.2 L558.0,203.5 L560.2,203.2 L562.5,202.7 L564.8,202.5 L567.0,202.0 L569.3,201.6 L571.6,201.2 L573.8,200.7 L576.1,199.6 L578.3,198.7 L580.6,197.1 L582.9,195.8 L585.1,194.6 L587.4,193.2 L589.7,192.1 L591.9,191.2 L594.2,190.6 L596.5,190.3 L598.7,189.6 L601.0,184.3 L603.3,177.7 L605.5,175.4 L607.8,174.5 L610.0,173.7 L612.3,172.4 L614.6,171.6 L616.8,170.2 L619.1,169.5 L621.4,168.9 L623.6,168.5 L625.9,168.3 L628.2,167.9 L630.4,167.0 L632.7,165.9 L635.0,164.8 L637.2,163.6 L639.5,162.2 L641.7,161.1 L644.0,159.9 L646.3,159.1 L648.5,158.4 L650.8,157.1 L653.1,155.4 L655.3,154.0 L657.6,151.9 L659.9,150.2 L662.1,149.3 L664.4,147.6 L666.6,146.7 L668.9,145.8 L671.2,145.2 L673.4,144.8 L675.7,144.3 L678.0,143.3 L680.2,142.7 L682.5,141.9 L684.8,141.2 L687.0,140.7 L689.3,140.3 L691.6,140.0 L693.8,139.6 L696.1,138.6 L698.3,137.9 L700.6,137.3 L702.9,136.7 L705.1,136.4 L707.4,136.0 L709.7,135.2 L711.9,134.8 L714.2,134.3 L716.5,134.1 L718.7,133.7 L721.0,133.2 L723.2,132.7 L725.5,132.2 L727.8,131.8 L730.0,131.2 L732.3,130.9 L734.6,130.5 L736.8,130.1 L739.1,129.9 L741.4,129.4 L743.6,128.7 L745.9,128.1 L748.2,127.0 L750.4,126.4 L752.7,126.2 L754.9,126.0 L757.2,123.7 L759.5,122.1 L761.7,120.7 L764.0,119.6" fill="none" stroke="#e0524e" stroke-width="2.5" stroke-linejoin="round" stroke-linecap="round"/>
<circle cx="764.0" cy="119.6" r="4" fill="#e0524e"/>
<text x="756.0" y="111.6" font-family="-apple-system,'Segoe UI',Helvetica,Arial,sans-serif" font-size="13" font-weight="600" text-anchor="end" fill="#e0524e">2,444</text>
</svg>
