<svg xmlns="http://www.w3.org/2000/svg" width="800" height="420" viewBox="0 0 800 420" role="img" aria-label="Star history of pnnbao97/VieNeu-TTS">
<text x="78" y="30" font-family="-apple-system,'Segoe UI',Helvetica,Arial,sans-serif" font-size="18" font-weight="600" fill="#24292f">Star history of pnnbao97/VieNeu-TTS</text>
<text x="78" y="50" font-family="-apple-system,'Segoe UI',Helvetica,Arial,sans-serif" font-size="12" fill="#57606a">2,724 stars · updated Oct 1, 2026</text>
<line x1="78" y1="364.0" x2="764" y2="364.0" stroke="#d0d7de" stroke-width="1" stroke-dasharray="3,3"/>
<text x="70" y="368.0" font-family="-apple-system,'Segoe UI',Helvetica,Arial,sans-serif" font-size="12" text-anchor="end" fill="#57606a">0</text>
<line x1="78" y1="264.0" x2="764" y2="264.0" stroke="#d0d7de" stroke-width="1" stroke-dasharray="3,3"/>
<text x="70" y="268.0" font-family="-apple-system,'Segoe UI',Helvetica,Arial,sans-serif" font-size="12" text-anchor="end" fill="#57606a">1,000</text>
<line x1="78" y1="164.0" x2="764" y2="164.0" stroke="#d0d7de" stroke-width="1" stroke-dasharray="3,3"/>
<text x="70" y="168.0" font-family="-apple-system,'Segoe UI',Helvetica,Arial,sans-serif" font-size="12" text-anchor="end" fill="#57606a">2,000</text>
<line x1="78" y1="64.0" x2="764" y2="64.0" stroke="#d0d7de" stroke-width="1" stroke-dasharray="3,3"/>
<text x="70" y="68.0" font-family="-apple-system,'Segoe UI',Helvetica,Arial,sans-serif" font-size="12" text-anchor="end" fill="#57606a">3,000</text>
<text x="78.0" y="388" font-family="-apple-system,'Segoe UI',Helvetica,Arial,sans-serif" font-size="12" text-anchor="middle" fill="#57606a">Oct 2025</text>
<text x="249.0" y="388" font-family="-apple-system,'Segoe UI',Helvetica,Arial,sans-serif" font-size="12" text-anchor="middle" fill="#57606a">Jan 2026</text>
<text x="420.0" y="388" font-family="-apple-system,'Segoe UI',Helvetica,Arial,sans-serif" font-size="12" text-anchor="middle" fill="#57606a">Apr 2026</text>
<text x="593.0" y="388" font-family="-apple-system,'Segoe UI',Helvetica,Arial,sans-serif" font-size="12" text-anchor="middle" fill="#57606a">Jul 2026</text>
<text x="764.0" y="388" font-family="-apple-system,'Segoe UI',Helvetica,Arial,sans-serif" font-size="12" text-anchor="middle" fill="#57606a">Oct 2026</text>
<path d="M78.0,361.0 L80.0,359.8 L82.1,359.5 L84.1,359.4 L86.1,359.2 L88.2,359.0 L90.2,358.9 L92.2,358.7 L94.3,358.5 L98.4,358.4 L102.4,358.2 L104.5,358.0 L106.5,357.8 L108.5,357.7 L110.6,357.4 L112.6,357.2 L114.6,356.9 L116.7,356.8 L118.7,356.0 L120.7,355.4 L122.8,354.8 L124.8,354.4 L126.9,354.0 L128.9,353.4 L130.9,352.4 L133.0,351.7 L135.0,351.5 L137.0,350.9 L139.1,350.8 L141.1,350.6 L143.1,350.3 L145.2,350.2 L147.2,349.9 L149.2,349.8 L151.3,349.6 L157.4,349.3 L159.4,349.1 L161.5,348.9 L163.5,348.1 L165.5,339.9 L167.6,336.1 L169.6,334.9 L171.6,333.9 L173.7,333.1 L175.7,332.3 L177.7,331.7 L179.8,331.1 L181.8,330.2 L183.9,329.9 L185.9,329.7 L187.9,329.2 L190.0,327.8 L192.0,327.2 L194.0,326.7 L196.1,326.4 L198.1,326.0 L200.1,325.4 L202.2,325.2 L204.2,325.0 L206.2,324.7 L208.3,324.4 L210.3,324.3 L212.4,324.2 L216.4,324.0 L220.5,323.9 L222.5,323.6 L224.6,317.4 L226.6,315.6 L228.6,312.8 L230.7,311.3 L232.7,310.3 L234.7,309.6 L236.8,308.9 L238.8,308.6 L240.8,308.5 L242.9,307.9 L244.9,307.6 L247.0,307.2 L249.0,306.6 L251.0,305.8 L253.1,304.9 L255.1,304.4 L257.1,302.7 L259.2,300.1 L261.2,297.6 L263.2,296.2 L265.3,295.6 L267.3,294.6 L269.3,293.9 L271.4,293.6 L273.4,293.1 L275.5,292.6 L277.5,292.2 L279.5,291.7 L281.6,291.6 L283.6,291.2 L285.6,291.0 L287.7,290.6 L289.7,290.2 L291.7,290.0 L293.8,289.9 L295.8,289.7 L297.8,289.6 L299.9,289.3 L301.9,288.6 L304.0,286.7 L306.0,285.9 L308.0,285.7 L310.1,285.4 L312.1,285.0 L314.1,284.9 L316.2,284.4 L318.2,283.3 L322.3,282.8 L326.3,282.5 L328.4,282.3 L330.4,281.9 L332.5,281.7 L334.5,281.5 L336.5,281.3 L338.6,281.0 L340.6,280.5 L342.6,280.1 L344.7,279.6 L346.7,279.1 L348.7,278.9 L350.8,277.4 L352.8,276.7 L354.8,276.0 L356.9,275.8 L358.9,275.3 L360.9,275.0 L363.0,274.6 L365.0,273.8 L367.1,273.6 L369.1,273.0 L371.1,272.4 L373.2,271.6 L375.2,271.0 L377.2,270.2 L379.3,269.8 L381.3,269.3 L383.3,268.7 L385.4,268.4 L387.4,267.6 L389.4,265.7 L391.5,264.2 L393.5,259.4 L395.6,247.9 L397.6,246.5 L399.6,245.5 L401.7,244.4 L403.7,244.0 L405.7,243.6 L407.8,242.6 L409.8,242.3 L411.8,241.6 L413.9,241.3 L415.9,240.7 L417.9,240.2 L420.0,239.6 L422.0,239.2 L424.1,238.6 L426.1,238.2 L428.1,237.6 L430.2,237.1 L432.2,236.9 L434.2,236.4 L436.3,235.7 L438.3,235.4 L440.3,235.1 L442.4,234.7 L446.4,234.2 L448.5,234.0 L450.5,233.7 L452.6,233.5 L454.6,233.3 L456.6,233.0 L458.7,232.3 L460.7,231.8 L462.7,224.1 L464.8,220.8 L466.8,219.5 L468.8,218.1 L470.9,216.8 L472.9,215.6 L474.9,214.6 L477.0,213.3 L479.0,212.8 L481.1,212.0 L483.1,211.6 L485.1,210.8 L487.2,209.9 L489.2,209.4 L491.2,208.7 L493.3,208.3 L495.3,207.5 L497.3,207.2 L499.4,206.8 L501.4,206.5 L503.4,205.6 L505.5,204.8 L507.5,204.2 L509.5,203.5 L511.6,203.2 L513.6,202.7 L515.7,202.5 L517.7,202.0 L519.7,201.6 L521.8,201.2 L523.8,200.7 L525.8,199.6 L527.9,198.7 L529.9,197.1 L531.9,195.8 L534.0,194.6 L536.0,193.2 L538.0,192.1 L540.1,191.2 L542.1,190.6 L544.2,190.3 L546.2,189.6 L548.2,184.3 L550.3,177.7 L552.3,175.4 L554.3,174.5 L556.4,173.7 L558.4,172.4 L560.4,171.6 L562.5,170.2 L564.5,169.5 L566.5,168.9 L568.6,168.5 L570.6,168.3 L572.7,167.9 L574.7,167.0 L576.7,165.9 L578.8,164.8 L580.8,163.6 L582.8,162.2 L584.9,161.1 L586.9,159.9 L588.9,159.1 L591.0,158.4 L593.0,157.1 L595.0,155.4 L597.1,154.0 L599.1,151.9 L601.2,150.2 L603.2,149.3 L605.2,147.6 L607.3,146.7 L609.3,145.8 L611.3,145.2 L613.4,144.8 L615.4,144.3 L617.4,143.3 L619.5,142.7 L621.5,141.9 L623.5,141.2 L625.6,140.7 L627.6,140.3 L629.6,140.0 L631.7,139.6 L633.7,138.6 L635.8,137.9 L637.8,137.3 L639.8,136.7 L641.9,136.4 L643.9,136.0 L645.9,135.2 L648.0,134.8 L650.0,134.3 L652.0,134.1 L654.1,133.7 L656.1,133.2 L658.1,132.7 L660.2,132.2 L662.2,131.8 L664.3,131.2 L666.3,130.9 L668.3,130.5 L670.4,130.1 L672.4,129.9 L674.4,129.4 L676.5,128.7 L678.5,128.1 L680.5,127.0 L682.6,126.4 L684.6,126.2 L686.6,126.0 L688.7,123.7 L690.7,122.1 L692.8,120.7 L694.8,119.6 L696.8,119.3 L698.9,118.7 L700.9,118.4 L702.9,118.1 L705.0,117.6 L707.0,117.0 L709.0,116.4 L711.1,115.3 L713.1,114.9 L715.1,114.5 L717.2,113.9 L719.2,112.4 L721.3,111.5 L723.3,109.5 L725.3,109.3 L727.4,108.8 L729.4,108.0 L731.4,106.8 L733.5,106.2 L735.5,105.3 L737.5,102.0 L739.6,100.8 L741.6,100.6 L743.6,100.1 L745.7,99.4 L747.7,99.1 L749.8,98.9 L751.8,97.4 L753.8,96.5 L755.9,95.3 L757.9,94.9 L759.9,94.0 L762.0,92.9 L764.0,91.6 L764.0,364.0 L78.0,364.0 Z" fill="#e0524e" fill-opacity="0.10"/>
<path d="M78.0,361.0 L80.0,359.8 L82.1,359.5 L84.1,359.4 L86.1,359.2 L88.2,359.0 L90.2,358.9 L92.2,358.7 L94.3,358.5 L98.4,358.4 L102.4,358.2 L104.5,358.0 L106.5,357.8 L108.5,357.7 L110.6,357.4 L112.6,357.2 L114.6,356.9 L116.7,356.8 L118.7,356.0 L120.7,355.4 L122.8,354.8 L124.8,354.4 L126.9,354.0 L128.9,353.4 L130.9,352.4 L133.0,351.7 L135.0,351.5 L137.0,350.9 L139.1,350.8 L141.1,350.6 L143.1,350.3 L145.2,350.2 L147.2,349.9 L149.2,349.8 L151.3,349.6 L157.4,349.3 L159.4,349.1 L161.5,348.9 L163.5,348.1 L165.5,339.9 L167.6,336.1 L169.6,334.9 L171.6,333.9 L173.7,333.1 L175.7,332.3 L177.7,331.7 L179.8,331.1 L181.8,330.2 L183.9,329.9 L185.9,329.7 L187.9,329.2 L190.0,327.8 L192.0,327.2 L194.0,326.7 L196.1,326.4 L198.1,326.0 L200.1,325.4 L202.2,325.2 L204.2,325.0 L206.2,324.7 L208.3,324.4 L210.3,324.3 L212.4,324.2 L216.4,324.0 L220.5,323.9 L222.5,323.6 L224.6,317.4 L226.6,315.6 L228.6,312.8 L230.7,311.3 L232.7,310.3 L234.7,309.6 L236.8,308.9 L238.8,308.6 L240.8,308.5 L242.9,307.9 L244.9,307.6 L247.0,307.2 L249.0,306.6 L251.0,305.8 L253.1,304.9 L255.1,304.4 L257.1,302.7 L259.2,300.1 L261.2,297.6 L263.2,296.2 L265.3,295.6 L267.3,294.6 L269.3,293.9 L271.4,293.6 L273.4,293.1 L275.5,292.6 L277.5,292.2 L279.5,291.7 L281.6,291.6 L283.6,291.2 L285.6,291.0 L287.7,290.6 L289.7,290.2 L291.7,290.0 L293.8,289.9 L295.8,289.7 L297.8,289.6 L299.9,289.3 L301.9,288.6 L304.0,286.7 L306.0,285.9 L308.0,285.7 L310.1,285.4 L312.1,285.0 L314.1,284.9 L316.2,284.4 L318.2,283.3 L322.3,282.8 L326.3,282.5 L328.4,282.3 L330.4,281.9 L332.5,281.7 L334.5,281.5 L336.5,281.3 L338.6,281.0 L340.6,280.5 L342.6,280.1 L344.7,279.6 L346.7,279.1 L348.7,278.9 L350.8,277.4 L352.8,276.7 L354.8,276.0 L356.9,275.8 L358.9,275.3 L360.9,275.0 L363.0,274.6 L365.0,273.8 L367.1,273.6 L369.1,273.0 L371.1,272.4 L373.2,271.6 L375.2,271.0 L377.2,270.2 L379.3,269.8 L381.3,269.3 L383.3,268.7 L385.4,268.4 L387.4,267.6 L389.4,265.7 L391.5,264.2 L393.5,259.4 L395.6,247.9 L397.6,246.5 L399.6,245.5 L401.7,244.4 L403.7,244.0 L405.7,243.6 L407.8,242.6 L409.8,242.3 L411.8,241.6 L413.9,241.3 L415.9,240.7 L417.9,240.2 L420.0,239.6 L422.0,239.2 L424.1,238.6 L426.1,238.2 L428.1,237.6 L430.2,237.1 L432.2,236.9 L434.2,236.4 L436.3,235.7 L438.3,235.4 L440.3,235.1 L442.4,234.7 L446.4,234.2 L448.5,234.0 L450.5,233.7 L452.6,233.5 L454.6,233.3 L456.6,233.0 L458.7,232.3 L460.7,231.8 L462.7,224.1 L464.8,220.8 L466.8,219.5 L468.8,218.1 L470.9,216.8 L472.9,215.6 L474.9,214.6 L477.0,213.3 L479.0,212.8 L481.1,212.0 L483.1,211.6 L485.1,210.8 L487.2,209.9 L489.2,209.4 L491.2,208.7 L493.3,208.3 L495.3,207.5 L497.3,207.2 L499.4,206.8 L501.4,206.5 L503.4,205.6 L505.5,204.8 L507.5,204.2 L509.5,203.5 L511.6,203.2 L513.6,202.7 L515.7,202.5 L517.7,202.0 L519.7,201.6 L521.8,201.2 L523.8,200.7 L525.8,199.6 L527.9,198.7 L529.9,197.1 L531.9,195.8 L534.0,194.6 L536.0,193.2 L538.0,192.1 L540.1,191.2 L542.1,190.6 L544.2,190.3 L546.2,189.6 L548.2,184.3 L550.3,177.7 L552.3,175.4 L554.3,174.5 L556.4,173.7 L558.4,172.4 L560.4,171.6 L562.5,170.2 L564.5,169.5 L566.5,168.9 L568.6,168.5 L570.6,168.3 L572.7,167.9 L574.7,167.0 L576.7,165.9 L578.8,164.8 L580.8,163.6 L582.8,162.2 L584.9,161.1 L586.9,159.9 L588.9,159.1 L591.0,158.4 L593.0,157.1 L595.0,155.4 L597.1,154.0 L599.1,151.9 L601.2,150.2 L603.2,149.3 L605.2,147.6 L607.3,146.7 L609.3,145.8 L611.3,145.2 L613.4,144.8 L615.4,144.3 L617.4,143.3 L619.5,142.7 L621.5,141.9 L623.5,141.2 L625.6,140.7 L627.6,140.3 L629.6,140.0 L631.7,139.6 L633.7,138.6 L635.8,137.9 L637.8,137.3 L639.8,136.7 L641.9,136.4 L643.9,136.0 L645.9,135.2 L648.0,134.8 L650.0,134.3 L652.0,134.1 L654.1,133.7 L656.1,133.2 L658.1,132.7 L660.2,132.2 L662.2,131.8 L664.3,131.2 L666.3,130.9 L668.3,130.5 L670.4,130.1 L672.4,129.9 L674.4,129.4 L676.5,128.7 L678.5,128.1 L680.5,127.0 L682.6,126.4 L684.6,126.2 L686.6,126.0 L688.7,123.7 L690.7,122.1 L692.8,120.7 L694.8,119.6 L696.8,119.3 L698.9,118.7 L700.9,118.4 L702.9,118.1 L705.0,117.6 L707.0,117.0 L709.0,116.4 L711.1,115.3 L713.1,114.9 L715.1,114.5 L717.2,113.9 L719.2,112.4 L721.3,111.5 L723.3,109.5 L725.3,109.3 L727.4,108.8 L729.4,108.0 L731.4,106.8 L733.5,106.2 L735.5,105.3 L737.5,102.0 L739.6,100.8 L741.6,100.6 L743.6,100.1 L745.7,99.4 L747.7,99.1 L749.8,98.9 L751.8,97.4 L753.8,96.5 L755.9,95.3 L757.9,94.9 L759.9,94.0 L762.0,92.9 L764.0,91.6" fill="none" stroke="#e0524e" stroke-width="2.5" stroke-linejoin="round" stroke-linecap="round"/>
<circle cx="764.0" cy="91.6" r="4" fill="#e0524e"/>
<text x="756.0" y="83.6" font-family="-apple-system,'Segoe UI',Helvetica,Arial,sans-serif" font-size="13" font-weight="600" text-anchor="end" fill="#e0524e">2,724</text>
</svg>
